<?xml version="1.0" standalone="no"?>
<!DOCTYPE svg PUBLIC "-//W3C//DTD SVG 20010904//EN"
 "http://www.w3.org/TR/2001/REC-SVG-20010904/DTD/svg10.dtd">
<svg version="1.0" xmlns="http://www.w3.org/2000/svg"
 width="260.000000pt" height="260.000000pt" viewBox="0 0 260.000000 260.000000"
 preserveAspectRatio="xMidYMid meet">
<metadata>
Created by potrace 1.14, written by Peter Selinger 2001-2017
</metadata>
<g transform="translate(0.000000,260.000000) scale(0.100000,-0.100000)"
fill="#000000" stroke="none">
<path d="M0 1300 l0 -1300 1300 0 1300 0 0 1300 0 1300 -1300 0 -1300 0 0
-1300z m2390 -5 l0 -1095 -1090 0 -1090 0 0 1095 0 1095 1090 0 1090 0 0
-1095z"/>
<path d="M810 1265 l0 -725 245 0 245 0 0 95 0 95 -135 0 -135 0 0 235 0 235
125 0 125 0 0 90 0 90 -125 0 -125 0 0 210 0 210 130 0 130 0 0 95 0 95 -240
0 -240 0 0 -725z"/>
<path d="M1490 1265 l0 -725 110 0 110 0 0 725 0 725 -110 0 -110 0 0 -725z"/>
</g>
</svg>
